# xmcd CD database file
#
# Track frame offsets:
#	150
#	16300
#	35477
#	60478
#	75044
#	91180
#	111698
#	115635
#	141162
#
# Disc length: 4440 seconds
#
# Revision: 0
# Processed by: cddbd v1.5.1PL2 Copyright (c) Steve Scherf et al.
# Submitted via: CDex 1.51
#
DISCID=66115609
DTITLE=Rin' - 〜Rin' Christmas Cover Songs〜聖夜
DYEAR=2004
DGENRE=Vocal
TTITLE0=Happy Xmas (War Is Over)
TTITLE1=Last Christmas
TTITLE2=Rin' Xmas Medley
TTITLE3=交響曲 第九番
TTITLE4=クリスマス・イヴ
TTITLE5=Merry Christmas Mr. Lawrence
TTITLE6=White Christmas
TTITLE7=In My Life
TTITLE8=@
EXTD=YEAR: 2004
EXTT0=
EXTT1=
EXTT2=
EXTT3=
EXTT4=
EXTT5=
EXTT6=
EXTT7=
EXTT8=
PLAYORDER=
